<svg width="90" height="90" viewBox="0 0 90 90" fill="none" xmlns="http://www.w3.org/2000/svg">
<rect x="0.5" y="0.5" width="89" height="89" stroke="black"/>
<rect x="10" y="20" width="60" height="60" fill="#D9D9D9"/>
<rect x="14" y="24" width="2" height="2" stroke="black"/>
<rect x="24" y="24" width="2" height="2" stroke="black"/>
<rect x="34" y="24" width="2" height="2" stroke="black"/>
<rect x="44" y="24" width="2" height="2" stroke="black"/>
<rect x="54" y="24" width="2" height="2" stroke="black"/>
<rect x="64" y="24" width="2" height="2" stroke="black"/>
<rect x="14" y="34" width="2" height="2" stroke="black"/>
<rect x="24" y="34" width="2" height="2" stroke="black"/>
<rect x="34" y="34" width="2" height="2" stroke="black"/>
<rect x="44" y="34" width="2" height="2" stroke="black"/>
<rect x="54" y="34" width="2" height="2" stroke="black"/>
<rect x="64" y="34" width="2" height="2" stroke="black"/>
<rect x="14" y="74" width="2" height="2" stroke="black"/>
<rect x="24" y="74" width="2" height="2" stroke="black"/>
<rect x="34" y="74" width="2" height="2" stroke="black"/>
<rect x="44" y="74" width="2" height="2" stroke="black"/>
<rect x="54" y="74" width="2" height="2" stroke="black"/>
<rect x="64" y="74" width="2" height="2" stroke="black"/>
<rect x="14" y="64" width="2" height="2" stroke="black"/>
<rect x="24" y="64" width="2" height="2" stroke="black"/>
<rect x="34" y="64" width="2" height="2" stroke="black"/>
<rect x="44" y="64" width="2" height="2" stroke="black"/>
<rect x="54" y="64" width="2" height="2" stroke="black"/>
<rect x="64" y="64" width="2" height="2" stroke="black"/>
<rect x="14" y="54" width="2" height="2" stroke="black"/>
<rect x="24" y="54" width="2" height="2" stroke="black"/>
<rect x="34" y="54" width="2" height="2" stroke="black"/>
<rect x="44" y="54" width="2" height="2" stroke="black"/>
<rect x="54" y="54" width="2" height="2" stroke="black"/>
<rect x="64" y="54" width="2" height="2" stroke="black"/>
<rect x="14" y="44" width="2" height="2" stroke="black"/>
<rect x="24" y="44" width="2" height="2" stroke="black"/>
<rect x="34" y="44" width="2" height="2" stroke="black"/>
<rect x="44" y="44" width="2" height="2" stroke="black"/>
<rect x="54" y="44" width="2" height="2" stroke="black"/>
<rect x="64" y="44" width="2" height="2" stroke="black"/>
<circle cx="79" cy="11" r="2" stroke="black"/>
<path d="M7 53.855L3.66144 50L7 46.145L7 53.855Z" stroke="black"/>
<path d="M36.145 17L40 13.6614L43.855 17H36.145Z" stroke="black"/>
<path d="M43.855 83L40 86.3386L36.145 83H43.855Z" stroke="black"/>
<path d="M73 46.145L76.3386 50L73 53.855V46.145Z" stroke="black"/>
</svg>
